<svg width="845" height="596" viewBox="0 0 845 596" fill="none" xmlns="http://www.w3.org/2000/svg">
<g clip-path="url(#clip0_305_2)">
<path d="M431.393 594C456.798 594 477.393 573.405 477.393 548C477.393 522.595 456.798 502 431.393 502C405.987 502 385.393 522.595 385.393 548C385.393 573.405 405.987 594 431.393 594Z" fill="#F8896B"/>
<path d="M706.199 591.414C731.934 583.685 759.293 575.626 779.703 557.253C797.94 540.835 810.253 515.764 802.697 491.142C795.157 466.57 772.573 450.185 749.256 442.036C736.031 437.414 722.195 434.85 708.364 432.836C693.329 430.646 678.228 428.852 663.134 427.126C602.016 420.135 540.668 415.865 479.09 414.315C448.706 413.55 418.327 413.568 387.938 414.009C360.798 414.403 332.216 414.393 307.039 402.859C287.46 393.889 269.691 377.57 264.235 356.125C257.938 331.37 269.553 306.161 286.215 288.233C294.998 278.783 305.263 270.829 315.852 263.516C327.339 255.582 339.227 248.209 351.372 241.328C375.293 227.78 400.302 216.251 426.139 206.859C438.885 202.225 451.82 198.226 464.867 194.538C475.884 191.423 486.935 188.304 497.583 184.06C518.166 175.856 537.744 161.96 542.977 139.179C547.937 117.587 539.574 94.1481 524.912 78.1082C507.949 59.5512 482.373 51.4163 457.852 50.1002C430.324 48.6225 403.43 55.5122 377.555 64.256C349.959 73.582 322.957 84.3052 294.777 91.8592C266.833 99.3426 238.348 104.638 209.581 107.696C195.499 109.195 180.991 110.889 166.825 109.741C154.953 108.778 143.141 105.287 134.391 96.8609C126.888 89.6361 122.419 79.7069 123.956 69.2285C124.235 67.3253 127.126 68.1344 126.849 70.026C124.978 82.7812 133.648 94.5347 144.333 100.555C156.681 107.514 171.707 107.523 185.454 106.727C215.263 104.927 244.871 100.647 273.969 93.9317C302.561 87.4011 330.133 78.0654 357.673 68.0926C383.829 58.6211 410.57 49.3768 438.513 47.3253C462.759 45.5453 488.265 49.0776 509.387 61.7485C527.951 72.8845 541.602 91.4557 545.952 112.767C550.202 133.591 544.315 154.552 528.552 169.084C512.23 184.13 489.851 190.563 468.995 196.487C442.543 204.002 416.658 212.786 391.603 224.191C366.206 235.718 341.85 249.412 318.803 265.119C296.556 280.321 274.602 299.449 267.566 326.57C264.289 339.203 264.894 352.602 270.378 364.534C275.254 375.144 283.284 384.069 292.639 390.953C314.96 407.377 343.092 410.75 370.054 411.085C400.335 411.462 430.617 410.44 460.909 410.937C522.641 411.95 584.247 415.708 645.727 422.21C661.133 423.84 676.518 425.643 691.885 427.617C705.706 429.393 719.575 431.157 733.163 434.311C757.326 439.92 780.837 450.703 795.855 471.189C802.52 480.069 806.65 490.592 807.802 501.635C808.854 513.159 806.032 524.705 800.822 534.956C789.29 557.647 767.688 572.079 744.749 581.561C732.462 586.64 719.717 590.487 706.997 594.307C705.144 594.864 704.352 591.969 706.199 591.414Z" fill="#F2F2F2"/>
<path d="M125.893 93.5C139.147 93.5 149.893 82.7548 149.893 69.5C149.893 56.2452 139.147 45.5 125.893 45.5C112.638 45.5 101.893 56.2452 101.893 69.5C101.893 82.7548 112.638 93.5 125.893 93.5Z" fill="#F2F2F2"/>
<path d="M292.393 139C305.647 139 316.393 128.255 316.393 115C316.393 101.745 305.647 91 292.393 91C279.138 91 268.393 101.745 268.393 115C268.393 128.255 279.138 139 292.393 139Z" fill="#F2F2F2"/>
<path d="M433.393 48C446.647 48 457.393 37.2548 457.393 24C457.393 10.7452 446.647 0 433.393 0C420.138 0 409.393 10.7452 409.393 24C409.393 37.2548 420.138 48 433.393 48Z" fill="#F2F2F2"/>
<path d="M521.393 150C534.647 150 545.393 139.255 545.393 126C545.393 112.745 534.647 102 521.393 102C508.138 102 497.393 112.745 497.393 126C497.393 139.255 508.138 150 521.393 150Z" fill="#F2F2F2"/>
<path d="M402.393 268C415.647 268 426.393 257.255 426.393 244C426.393 230.745 415.647 220 402.393 220C389.138 220 378.393 230.745 378.393 244C378.393 257.255 389.138 268 402.393 268Z" fill="#F2F2F2"/>
<path d="M251.393 325C264.647 325 275.393 314.255 275.393 301C275.393 287.745 264.647 277 251.393 277C238.138 277 227.393 287.745 227.393 301C227.393 314.255 238.138 325 251.393 325Z" fill="#F2F2F2"/>
<path d="M411.393 414C424.647 414 435.393 403.255 435.393 390C435.393 376.745 424.647 366 411.393 366C398.138 366 387.393 376.745 387.393 390C387.393 403.255 398.138 414 411.393 414Z" fill="#F2F2F2"/>
<path d="M583.393 464C596.647 464 607.393 453.255 607.393 440C607.393 426.745 596.647 416 583.393 416C570.138 416 559.393 426.745 559.393 440C559.393 453.255 570.138 464 583.393 464Z" fill="#F2F2F2"/>
<path d="M784.393 453C797.647 453 808.393 442.255 808.393 429C808.393 415.745 797.647 405 784.393 405C771.138 405 760.393 415.745 760.393 429C760.393 442.255 771.138 453 784.393 453Z" fill="#F2F2F2"/>
<path d="M426.464 68.0035C354.573 68.5113 295.708 126.933 294.687 198.82C294.678 199.484 294.673 204.15 294.674 210.254C294.674 219.204 298.23 227.786 304.558 234.115C310.886 240.443 319.468 243.999 328.418 244C332.854 243.999 337.247 243.124 341.345 241.425C345.443 239.725 349.166 237.235 352.301 234.097C355.437 230.958 357.923 227.232 359.618 223.132C361.312 219.032 362.183 214.639 362.179 210.202C362.176 206.05 362.173 203.176 362.173 203C362.171 191.89 365.061 180.971 370.559 171.316C376.056 161.662 383.973 153.605 393.529 147.938C403.085 142.271 413.951 139.189 425.059 138.996C436.168 138.803 447.135 141.504 456.882 146.835C466.63 152.166 474.822 159.942 480.652 169.399C486.483 178.856 489.751 189.668 490.136 200.771C490.52 211.875 488.008 222.887 482.846 232.725C477.683 242.563 470.049 250.887 460.694 256.879L460.705 256.894C460.705 256.894 412.677 287.813 398.035 330.229L398.047 330.232C395.472 338.921 394.168 347.937 394.173 357C394.173 360.725 394.393 393.321 394.816 419.778C394.964 428.906 398.695 437.611 405.203 444.013C411.712 450.415 420.476 454.002 429.606 454C434.194 454 438.736 453.093 442.971 451.33C447.207 449.568 451.052 446.986 454.286 443.732C457.519 440.478 460.078 436.617 461.813 432.371C463.549 428.124 464.428 423.577 464.4 418.989C464.253 394.76 464.173 366.548 464.173 364.5C464.173 338.455 489.299 312.505 509.937 295.583C533.703 276.096 550.805 249.54 557.674 219.584C559.194 213.416 560.032 207.1 560.173 200.75C560.173 183.236 556.708 165.896 549.976 149.727C543.245 133.559 533.381 118.882 520.952 106.543C508.524 94.2039 493.776 84.446 477.559 77.8316C461.343 71.2171 443.978 67.8769 426.464 68.0035Z" fill="#F8896B"/>
<path d="M843.485 595.26H1.19115C0.875955 595.259 0.573992 595.134 0.35144 594.91C0.128889 594.687 0.00390625 594.385 0.00390625 594.07C0.00390625 593.754 0.128889 593.452 0.35144 593.229C0.573992 593.006 0.875955 592.88 1.19115 592.879H843.485C843.801 592.879 844.104 593.004 844.327 593.228C844.55 593.451 844.676 593.754 844.676 594.07C844.676 594.385 844.55 594.688 844.327 594.912C844.104 595.135 843.801 595.26 843.485 595.26Z" fill="#3F3D56"/>
<path d="M628.449 272.996C645.018 272.996 658.449 259.565 658.449 242.996C658.449 226.428 645.018 212.996 628.449 212.996C611.881 212.996 598.449 226.428 598.449 242.996C598.449 259.565 611.881 272.996 628.449 272.996Z" fill="#2F2E41"/>
<path d="M573.012 582.128H560.753L554.92 534.84H573.015L573.012 582.128Z" fill="#A0616A"/>
<path d="M551.996 578.625H575.64V593.512H537.109C537.109 591.557 537.494 589.621 538.243 587.815C538.991 586.009 540.087 584.368 541.47 582.985C542.852 581.603 544.493 580.506 546.299 579.758C548.105 579.01 550.041 578.625 551.996 578.625Z" fill="#2F2E41"/>
<path d="M668.012 582.128H655.753L649.92 534.84H668.015L668.012 582.128Z" fill="#A0616A"/>
<path d="M646.996 578.625H670.64V593.512H632.109C632.109 591.557 632.494 589.621 633.243 587.815C633.991 586.009 635.087 584.368 636.47 582.985C637.852 581.603 639.493 580.506 641.299 579.758C643.105 579.01 645.041 578.625 646.996 578.625Z" fill="#2F2E41"/>
<path d="M623.889 273.173C637.454 273.173 648.45 262.176 648.45 248.612C648.45 235.047 637.454 224.051 623.889 224.051C610.324 224.051 599.328 235.047 599.328 248.612C599.328 262.176 610.324 273.173 623.889 273.173Z" fill="#A0616A"/>
<path d="M638.528 352.406L649.518 327.156C652.187 321.233 652.952 314.627 651.707 308.251C650.462 301.874 647.269 296.041 642.568 291.556C641.603 290.602 640.577 289.71 639.498 288.886C634.075 284.644 627.393 282.332 620.508 282.316C615.879 282.334 611.309 283.351 607.108 285.296C606.748 285.456 606.398 285.626 606.038 285.796C605.348 286.126 604.668 286.486 604.008 286.856C599.703 289.328 596.039 292.777 593.312 296.925C590.585 301.073 588.871 305.804 588.308 310.736L583.458 351.376C582.238 354.566 538.718 469.766 553.938 557.716C554.1 558.656 554.558 559.518 555.246 560.179C555.933 560.839 556.813 561.262 557.758 561.386L573.188 563.486C574.315 563.641 575.458 563.362 576.388 562.707C577.317 562.052 577.964 561.069 578.198 559.956L604.088 436.546C604.25 435.78 604.663 435.089 605.263 434.585C605.863 434.081 606.615 433.793 607.398 433.766C608.181 433.74 608.95 433.977 609.583 434.439C610.216 434.901 610.675 435.562 610.888 436.316L647.468 566.096C647.729 567.039 648.291 567.871 649.07 568.463C649.848 569.056 650.8 569.377 651.778 569.376C652.07 569.375 652.361 569.348 652.648 569.296L671.498 565.666C672.594 565.462 673.574 564.855 674.245 563.965C674.917 563.075 675.232 561.966 675.128 560.856C672.358 529.966 657.638 375.236 638.528 352.406Z" fill="#2F2E41"/>
<path d="M528.439 269.05C528.268 270.51 528.42 271.99 528.884 273.385C529.347 274.78 530.11 276.057 531.12 277.125C532.131 278.193 533.363 279.027 534.73 279.567C536.097 280.108 537.566 280.342 539.033 280.253L552.762 313.246L563.147 297.851L548.518 268.881C548.205 266.426 547.003 264.171 545.139 262.542C543.275 260.914 540.879 260.026 538.404 260.047C535.929 260.068 533.547 260.996 531.711 262.655C529.874 264.314 528.71 266.59 528.439 269.05Z" fill="#A0616A"/>
<path d="M622.527 385.628C623.987 385.453 625.391 384.961 626.64 384.185C627.888 383.41 628.952 382.37 629.755 381.139C630.559 379.907 631.082 378.515 631.29 377.06C631.497 375.604 631.382 374.121 630.954 372.715L659.839 351.676L642.449 345.164L617.685 366.141C615.37 367.017 613.457 368.711 612.308 370.904C611.159 373.096 610.854 375.633 611.451 378.035C612.048 380.437 613.505 382.537 615.546 383.936C617.588 385.336 620.072 385.938 622.527 385.628Z" fill="#A0616A"/>
<path d="M575.44 335.239C574.333 335.238 573.228 335.129 572.142 334.914C569.514 334.414 567.05 333.275 564.967 331.599C562.883 329.922 561.244 327.758 560.194 325.298L540.96 301.845C540.553 301.349 540.257 300.772 540.092 300.152C539.926 299.533 539.895 298.885 540 298.253C540.106 297.62 540.345 297.017 540.702 296.485C541.059 295.952 541.526 295.502 542.071 295.164L555.755 286.694C556.261 286.381 556.823 286.171 557.41 286.077C557.996 285.982 558.596 286.005 559.174 286.144C559.751 286.282 560.296 286.534 560.776 286.884C561.256 287.234 561.662 287.676 561.971 288.184L575.527 310.518L601.489 291.331C603.556 290.247 605.944 289.943 608.216 290.475C610.489 291.006 612.495 292.338 613.867 294.226C615.239 296.114 615.886 298.432 615.69 300.758C615.494 303.084 614.467 305.261 612.798 306.893L586.886 330.529C583.842 333.548 579.728 335.241 575.44 335.239Z" fill="#2F2E41"/>
<path d="M645.59 370.514C645.555 370.514 645.52 370.515 645.484 370.514C644.853 370.498 644.233 370.35 643.662 370.08C643.092 369.809 642.585 369.422 642.174 368.943L630.007 354.75C629.593 354.266 629.286 353.701 629.106 353.09C628.927 352.479 628.879 351.837 628.966 351.206C629.053 350.576 629.273 349.971 629.611 349.431C629.949 348.892 630.398 348.43 630.928 348.077L653.709 332.889L633.071 308.077C631.87 306.075 631.43 303.709 631.83 301.409C632.23 299.11 633.444 297.031 635.251 295.553C637.057 294.075 639.335 293.296 641.668 293.359C644.001 293.422 646.234 294.322 647.958 295.894L673.042 320.407C675.016 322.21 676.523 324.466 677.433 326.98C678.344 329.494 678.631 332.192 678.269 334.841C677.908 337.491 676.909 340.013 675.358 342.191C673.808 344.369 671.751 346.139 669.366 347.347L648.865 369.101C648.444 369.547 647.936 369.903 647.373 370.146C646.81 370.389 646.203 370.514 645.59 370.514Z" fill="#2F2E41"/>
<path d="M617.645 318.215C617.45 318.215 617.255 318.202 617.061 318.178C616.214 318.075 615.414 317.731 614.756 317.187C614.098 316.643 613.61 315.922 613.35 315.109L604.208 287.08C603.979 286.371 604.014 285.603 604.307 284.919C604.6 284.234 605.131 283.679 605.802 283.355L606.099 283.215C606.368 283.087 606.634 282.961 606.906 282.839C611.169 280.862 615.81 279.831 620.509 279.816C626.61 279.828 632.574 281.62 637.67 284.973C638.354 285.428 638.831 286.133 639 286.936C639.168 287.739 639.015 288.577 638.572 289.268L621.422 316.135C621.02 316.773 620.462 317.299 619.802 317.662C619.141 318.026 618.399 318.216 617.645 318.215Z" fill="#E6E6E6"/>
<path d="M652.102 229.602C657.523 229.602 661.919 225.207 661.919 219.785C661.919 214.364 657.523 209.969 652.102 209.969C646.68 209.969 642.285 214.364 642.285 219.785C642.285 225.207 646.68 229.602 652.102 229.602Z" fill="#2F2E41"/>
<path d="M618.449 208.996C611.554 208.996 604.94 211.735 600.064 216.611C595.189 221.487 592.449 228.1 592.449 234.996V245.996H605.979L612.449 234.996L614.391 245.996H655.449L644.449 234.996C644.449 228.1 641.71 221.487 636.834 216.611C631.958 211.735 625.345 208.996 618.449 208.996Z" fill="#2F2E41"/>
<path d="M657.146 213.062C658.232 209.668 660.48 206.765 663.494 204.864C666.508 202.962 670.096 202.184 673.627 202.667C679.883 203.713 684.83 208.741 687.777 214.358C690.724 219.974 692.085 226.26 694.066 232.286C696.047 238.311 698.857 244.369 703.859 248.27C708.861 252.17 716.536 253.228 721.449 249.216C720.888 253.397 719.026 257.297 716.127 260.362C713.228 263.428 709.439 265.505 705.296 266.299C701.152 267.093 696.863 266.564 693.037 264.787C689.21 263.01 686.039 260.075 683.972 256.397C681.38 251.785 680.711 246.38 679.942 241.146C679.173 235.912 678.174 230.496 675.08 226.206C671.985 221.915 666.192 219.113 661.276 221.067L657.146 213.062Z" fill="#2F2E41"/>
<path d="M337.947 228.038C328.998 228.037 320.415 224.481 314.087 218.153C307.759 211.825 304.204 203.242 304.203 194.292C304.203 188.188 304.207 183.522 304.216 182.858C304.501 161.951 309.766 141.414 319.575 122.949C303.459 145.012 294.597 171.538 294.216 198.858C294.207 199.522 294.203 204.188 294.203 210.292C294.204 219.242 297.759 227.825 304.087 234.153C310.415 240.481 318.998 244.037 327.947 244.038C335.301 244.035 342.453 241.632 348.317 237.194C354.181 232.756 358.436 226.525 360.435 219.448C354.256 224.988 346.247 228.048 337.947 228.038Z" fill="#3F3D56"/>
<path d="M428.753 139.109C439.099 139.603 449.171 142.601 458.103 147.845C467.036 153.089 474.562 160.422 480.036 169.216C485.51 178.009 488.768 188 489.53 198.33C490.292 208.659 488.536 219.02 484.412 228.522C490.377 221.516 494.761 213.307 497.266 204.454C499.771 195.6 500.337 186.311 498.926 177.219C497.515 168.127 494.16 159.446 489.091 151.768C484.021 144.09 477.355 137.596 469.547 132.727C461.74 127.859 452.975 124.732 443.849 123.558C434.723 122.384 425.452 123.192 416.667 125.927C407.882 128.661 399.789 133.257 392.942 139.403C386.094 145.548 380.652 153.097 376.986 161.536C383.322 154.084 391.284 148.186 400.259 144.297C409.235 140.409 418.983 138.634 428.753 139.109Z" fill="#3F3D56"/>
<path d="M439.134 438.038C430.004 438.04 421.24 434.453 414.731 428.051C408.223 421.649 404.492 412.944 404.344 403.816C403.92 377.36 403.701 344.764 403.701 341.038C403.695 331.976 405 322.96 407.575 314.27L407.563 314.267C409.083 309.906 410.919 305.661 413.057 301.566C406.495 310.311 401.273 319.984 397.563 330.267L397.575 330.27C395 338.96 393.695 347.976 393.701 357.038C393.701 360.764 393.92 393.36 394.344 419.816C394.492 428.944 398.223 437.649 404.731 444.051C411.24 450.453 420.004 454.04 429.134 454.038C436.661 454.037 443.986 451.595 450.008 447.079C456.03 442.563 460.426 436.216 462.536 428.99C456.139 434.823 447.791 438.05 439.134 438.038Z" fill="#3F3D56"/>
<path d="M126.54 582.586L138.799 582.585L144.632 535.297L126.537 535.298L126.54 582.586Z" fill="#FFB8B8"/>
<path d="M162.445 593.969L123.915 593.971L123.914 579.084L147.558 579.083C151.506 579.082 155.293 580.651 158.085 583.442C160.877 586.234 162.445 590.021 162.445 593.969Z" fill="#2F2E41"/>
<path d="M82.5401 582.586L94.7991 582.585L100.632 535.297L82.5371 535.298L82.5401 582.586Z" fill="#FFB8B8"/>
<path d="M118.445 593.969L79.9146 593.971L79.9139 579.084L103.558 579.083C107.506 579.082 111.293 580.651 114.085 583.442C116.877 586.234 118.445 590.021 118.445 593.969Z" fill="#2F2E41"/>
<path d="M93.2547 568.043L81.2797 567.413C80.6622 567.381 80.0573 567.226 79.5 566.958C78.9428 566.69 78.4442 566.315 78.0332 565.853C77.6223 565.391 77.307 564.852 77.1059 564.267C76.9047 563.682 76.8215 563.063 76.8612 562.446L91.1739 403.98L157.085 421.766L163.435 420.034L143.577 560.318C143.408 561.374 142.884 562.34 142.091 563.057C141.299 563.774 140.285 564.2 139.219 564.263L126.31 564.865C125.664 564.9 125.018 564.802 124.413 564.575C123.807 564.349 123.255 563.999 122.792 563.549C122.329 563.098 121.964 562.556 121.72 561.957C121.477 561.358 121.36 560.715 121.378 560.069L123.717 475.873C123.728 475.483 123.593 475.104 123.338 474.809C123.083 474.515 122.727 474.326 122.34 474.281C121.954 474.236 121.564 474.337 121.248 474.565C120.932 474.793 120.713 475.131 120.634 475.512L98.0771 564.325C97.8642 565.379 97.2924 566.326 96.4592 567.005C95.626 567.685 94.583 568.054 93.508 568.05C93.4241 568.05 93.3397 568.048 93.2547 568.043Z" fill="#2F2E41"/>
<path d="M128.743 274.321C142.307 274.321 153.304 263.325 153.304 249.76C153.304 236.196 142.307 225.199 128.743 225.199C115.178 225.199 104.182 236.196 104.182 249.76C104.182 263.325 115.178 274.321 128.743 274.321Z" fill="#FFB8B8"/>
<path d="M87.8497 321.917L90.5503 380.185L91.5265 401.383C91.5654 402.306 91.8787 403.196 92.4264 403.94C92.974 404.684 93.7311 405.247 94.6008 405.559L157.937 428.502C158.448 428.692 158.991 428.787 159.536 428.782C160.16 428.785 160.778 428.663 161.354 428.422C161.929 428.18 162.45 427.826 162.885 427.379C163.32 426.932 163.661 426.402 163.887 425.82C164.113 425.239 164.219 424.618 164.2 423.994L161.603 319.227C161.433 310.632 158.269 302.365 152.657 295.852C147.044 289.339 139.336 284.989 130.86 283.55C130.247 283.457 129.624 283.363 129.001 283.28C123.745 282.628 118.41 283.135 113.371 284.766C108.332 286.397 103.712 289.113 99.8356 292.721C95.8216 296.413 92.6675 300.942 90.5964 305.987C88.5253 311.032 87.5876 316.47 87.8497 321.917Z" fill="#CCCCCC"/>
<path d="M188.192 416.875C186.694 416.41 185.326 415.602 184.196 414.514C183.066 413.426 182.206 412.089 181.684 410.61C181.163 409.131 180.994 407.55 181.192 405.994C181.39 404.438 181.949 402.95 182.824 401.648L161.346 373.089L179.88 371.941L197.434 399.238C199.314 400.691 200.621 402.76 201.128 405.08C201.635 407.401 201.308 409.826 200.206 411.93C199.103 414.034 197.295 415.683 195.098 416.587C192.902 417.491 190.457 417.593 188.192 416.875Z" fill="#FFB8B8"/>
<path d="M173.091 396.483C172.522 396.252 172.004 395.91 171.568 395.478C171.132 395.046 170.786 394.531 170.55 393.964L138.192 316.87C137.557 315.361 137.226 313.741 137.217 312.103C137.208 310.466 137.522 308.843 138.141 307.327C138.76 305.811 139.672 304.431 140.824 303.268C141.977 302.104 143.347 301.179 144.857 300.545C146.367 299.912 147.987 299.582 149.624 299.574C151.262 299.567 152.885 299.882 154.4 300.503C155.916 301.123 157.294 302.035 158.457 303.189C159.62 304.342 160.544 305.713 161.176 307.223L193.534 384.318C194.013 385.461 194.018 386.748 193.549 387.895C193.08 389.042 192.176 389.956 191.034 390.437L176.668 396.466C176.103 396.705 175.496 396.83 174.881 396.833C174.267 396.836 173.659 396.717 173.091 396.483Z" fill="#CCCCCC"/>
<path d="M120.845 393.761L151.924 334.252C152.523 333.107 153.552 332.247 154.785 331.861C156.017 331.474 157.353 331.592 158.499 332.188L203.61 355.748C204.755 356.348 205.615 357.377 206.002 358.609C206.388 359.842 206.271 361.178 205.674 362.323L174.595 421.832C173.995 422.977 172.966 423.837 171.734 424.224C170.501 424.61 169.165 424.492 168.02 423.896L122.908 400.336C121.764 399.736 120.904 398.707 120.517 397.475C120.13 396.242 120.248 394.906 120.845 393.761Z" fill="#3F3D56"/>
<path d="M141.688 366.574C141.135 365.106 140.247 363.787 139.095 362.724C137.942 361.66 136.557 360.88 135.049 360.447C133.542 360.013 131.954 359.939 130.413 360.228C128.871 360.517 127.419 361.163 126.171 362.113L96.3924 342.359L96.3418 360.929L124.628 376.841C126.189 378.631 128.331 379.814 130.678 380.183C133.024 380.552 135.426 380.083 137.461 378.858C139.497 377.633 141.036 375.731 141.808 373.485C142.581 371.238 142.539 368.792 141.688 366.574Z" fill="#FFB8B8"/>
<path d="M104.039 370.75L79.7019 351.473C77.0692 350.589 74.6902 349.079 72.7694 347.073C70.8485 345.067 69.4431 342.625 68.6737 339.957C67.9043 337.288 67.794 334.473 68.3522 331.752C68.9104 329.032 70.1205 326.487 71.8785 324.337L93.9756 295.378C95.5112 293.501 97.6708 292.24 100.06 291.825C102.448 291.41 104.907 291.868 106.986 293.116C109.065 294.364 110.625 296.319 111.381 298.622C112.138 300.926 112.04 303.425 111.105 305.662L93.6214 334.262L119.315 346.449C119.913 346.733 120.443 347.139 120.872 347.643C121.301 348.147 121.617 348.735 121.802 349.371C121.986 350.006 122.033 350.673 121.94 351.327C121.847 351.982 121.617 352.61 121.264 353.169L110.892 369.583C110.541 370.137 110.078 370.611 109.533 370.975C108.987 371.338 108.371 371.583 107.725 371.694C107.699 371.698 107.674 371.702 107.648 371.706C107.013 371.802 106.365 371.767 105.744 371.602C105.123 371.438 104.543 371.148 104.039 370.75Z" fill="#CCCCCC"/>
<path d="M110.183 266.206C110.077 265.898 110.044 265.57 110.085 265.247C110.126 264.923 110.241 264.614 110.42 264.342C110.599 264.07 110.838 263.842 111.119 263.677C111.399 263.511 111.714 263.412 112.039 263.387C112.704 263.424 113.355 263.594 113.953 263.889C114.55 264.184 115.082 264.596 115.515 265.102C116.404 266.127 117.439 267.016 118.586 267.739C119.774 268.338 121.386 268.253 122.063 267.111C122.699 266.039 122.263 264.603 121.878 263.358C120.898 260.189 120.35 256.903 120.248 253.588C120.137 249.887 120.659 246.026 122.708 243.14C125.352 239.415 130.079 238.001 134.553 238.103C139.028 238.206 143.429 239.587 147.861 240.46C149.391 240.761 151.189 240.915 152.212 239.73C153.3 238.469 152.901 236.428 152.438 234.726C151.237 230.309 149.963 225.741 147.173 222.174C144.156 218.467 139.846 216.04 135.112 215.384C130.567 214.821 125.953 215.344 121.649 216.912C114.638 219.122 108.469 223.42 103.967 229.231C99.3252 235.41 97.3197 243.176 98.3884 250.831C99.4325 257.497 102.965 263.52 108.274 267.685L110.183 266.206Z" fill="#2F2E41"/>
<path d="M421.258 582.782C414.724 579.936 408.94 575.61 404.364 570.146C399.787 564.682 396.543 558.229 394.888 551.296C393.232 544.364 393.211 537.141 394.825 530.199C396.439 523.257 399.644 516.784 404.188 511.293C398.92 515.139 394.53 520.062 391.31 525.735C388.09 531.408 386.113 537.7 385.511 544.195C384.909 550.69 385.695 557.239 387.817 563.407C389.939 569.575 393.349 575.221 397.82 579.971C402.291 584.72 407.721 588.464 413.75 590.955C419.779 593.445 426.268 594.625 432.788 594.415C439.307 594.206 445.708 592.612 451.564 589.74C457.421 586.868 462.6 582.783 466.757 577.757C460.273 582.496 452.66 585.454 444.677 586.335C436.695 587.217 428.62 585.992 421.258 582.782Z" fill="#3F3D56"/>
</g>
<defs>
<clipPath id="clip0_305_2">
<rect width="844.675" height="595.262" fill="white"/>
</clipPath>
</defs>
</svg>
