<svg width="895" height="449" viewBox="0 0 895 449" fill="none" xmlns="http://www.w3.org/2000/svg">
<g clip-path="url(#clip0_136_40)">
<path d="M294.493 448.283C267.51 448.283 240.567 447.8 213.664 446.834C175.224 445.453 135.475 444.026 98.5289 423.535C72.6838 409.202 49.794 386.206 32.3347 357.031C20.6652 337.257 12.1086 315.804 6.96545 293.427C-2.62848 252.685 -2.3017 210.236 7.91831 169.647C11.4998 155.731 16.4371 142.199 22.6594 129.247C49.6024 73.4534 98.7443 36.0007 157.485 26.4929C157.97 26.43 158.461 26.4195 158.948 26.4617C159.212 26.4758 159.476 26.491 159.744 26.4797L160.09 26.3699C160.976 26.062 161.886 25.8284 162.811 25.6716C253.405 12.1848 349.176 39.4734 439.763 104.585C509.805 154.936 602.63 182.05 723.544 187.474L725.261 187.564C758.92 189.498 791.479 203.375 819.421 227.697C847.001 251.703 867.708 283.731 879.305 320.321C880.731 324.782 882.038 329.426 883.189 334.122C884.262 338.486 884.186 343.054 882.969 347.381C881.753 351.708 879.438 355.646 876.248 358.812V358.821L875.947 359.131C875.223 359.851 874.46 360.543 873.68 361.186L872.763 361.942C865.036 368.307 858.933 373.336 851.628 377.241C846.757 379.828 841.576 381.784 836.21 383.062C806.744 390.246 776.822 396.906 747.274 402.859C689.889 414.429 630.992 423.974 572.22 431.227C480.08 442.588 387.33 448.284 294.493 448.283ZM158.261 28.4378C158.081 28.4361 157.901 28.4483 157.722 28.4744C99.5301 37.8933 50.8534 74.9783 24.1776 130.219C18.0167 143.044 13.1282 156.441 9.58235 170.219C-0.544539 210.448 -0.867255 252.521 8.64134 292.9C13.7341 315.063 22.2078 336.311 33.7647 355.896C51.0531 384.785 73.7088 407.551 99.2829 421.732C135.897 442.04 175.459 443.461 213.719 444.834C333.382 449.109 453.195 443.895 572.034 429.239C630.769 421.99 689.627 412.452 746.974 400.888C776.503 394.94 806.404 388.285 835.85 381.105C841.086 379.859 846.143 377.951 850.897 375.427C858.054 371.6 864.099 366.62 871.752 360.315L872.669 359.56C873.339 359.007 873.997 358.415 874.627 357.8L874.808 357.61C881.097 351.271 883.543 342.908 881.518 334.666V334.665C880.378 330.018 879.085 325.425 877.674 321.009C853.984 246.263 792.7 193.44 725.178 189.562L723.47 189.472C668.239 186.994 619.906 180.129 575.719 168.482C522.969 154.58 476.918 133.652 438.843 106.281C348.601 41.4192 253.23 14.2322 163.032 27.655C162.189 27.8004 161.36 28.0153 160.553 28.2976L159.93 28.4719C159.576 28.4878 159.222 28.4835 158.869 28.4592C158.66 28.4485 158.459 28.4378 158.261 28.4378Z" fill="#F0F0F0"/>
<path d="M279.326 146.055C276.828 143.658 274.273 130.293 271.084 128.936C273.468 134.205 271.737 135.6 271.724 141.382C271.754 144.665 271.371 147.939 270.583 151.127H216.559V108.965C216.558 105.176 217.305 101.425 218.754 97.9251C220.204 94.4251 222.329 91.245 225.008 88.5662C227.686 85.8874 230.867 83.7625 234.367 82.3128C237.867 80.8631 241.618 80.1171 245.406 80.1172C246.852 80.1454 248.289 80.3557 249.682 80.7432C254.326 81.9969 258.558 84.4496 261.954 87.8553C265.351 91.261 267.792 95.5 269.033 100.147C273.151 115.201 279.701 140.258 279.326 146.055Z" fill="#2F2E41"/>
<path d="M219.729 197.921L219.756 165.059L200.438 166.785L207.256 187.511L204.065 239.608C202.517 239.955 201.104 240.745 199.998 241.881C198.892 243.018 198.14 244.452 197.835 246.008C197.529 247.564 197.683 249.176 198.278 250.646C198.872 252.117 199.882 253.382 201.183 254.289C202.485 255.195 204.022 255.703 205.607 255.751C207.192 255.799 208.757 255.385 210.111 254.559C211.465 253.733 212.549 252.531 213.232 251.099C213.914 249.668 214.166 248.068 213.955 246.496L219.729 197.921Z" fill="#FFB6B6"/>
<path d="M257.746 432.759L265.55 432.758L269.263 402.656H257.744L257.746 432.759Z" fill="#FFB6B6"/>
<path d="M255.102 428.908L267.44 428.172V433.458L279.169 441.558C279.748 441.958 280.184 442.533 280.414 443.198C280.644 443.864 280.654 444.586 280.445 445.258C280.235 445.93 279.816 446.517 279.249 446.935C278.682 447.352 277.997 447.577 277.293 447.577H262.605L260.073 442.348L259.085 447.577H253.547L255.102 428.908Z" fill="#2F2E41"/>
<path d="M212.62 432.759L220.425 432.758L224.137 402.656H212.619L212.62 432.759Z" fill="#FFB6B6"/>
<path d="M209.977 428.908L222.315 428.172V433.458L234.044 441.558C234.623 441.958 235.059 442.533 235.289 443.198C235.519 443.864 235.529 444.586 235.32 445.258C235.11 445.93 234.691 446.517 234.124 446.935C233.557 447.352 232.872 447.577 232.168 447.577H217.48L214.948 442.348L213.96 447.577H208.422L209.977 428.908Z" fill="#2F2E41"/>
<path d="M250.796 129.57L234.629 129.887L223.217 141.934L214.067 143.275C209.929 143.882 206.124 145.892 203.288 148.967C200.453 152.043 198.759 155.998 198.49 160.173L200.075 168.879H209.585L215.087 201.182C212.948 206.633 212.802 210.936 217.194 212.626L230.825 238.303L271.085 220.234C273.126 216.724 273.781 213.198 271.694 209.77L274.572 160.32H284.249C284.249 151.071 281.121 143.274 271.93 142.245C268.279 141.85 264.612 141.64 260.94 141.617L250.796 129.57Z" fill="#E6E6E6"/>
<path d="M271.084 220.237C271.084 220.237 231.775 227.211 217.193 212.629C217.193 212.629 215.712 215.142 213.481 219.31C212.84 220.509 211.601 221.321 210.853 222.773C210.173 224.093 208.423 225.715 207.683 227.212C207.087 228.416 208.043 229.989 207.423 231.29C199.955 246.954 191.23 269.048 193.1 283.638C194.306 293.047 196.798 314.94 199.422 338.454C199.627 340.292 197.966 342.652 198.172 344.504C198.367 346.25 200.428 347.487 200.622 349.237C200.751 350.4 199.312 351.585 199.44 352.746C199.582 354.019 201.291 355.268 201.431 356.536C205.025 389.004 208.317 419.317 208.317 419.317H226.703L230.172 350.085L227.337 324.849L233.994 273.811L243.187 322.313L244.37 349.61L254.085 420.585H271.084V351.877L272.352 348.308L271.084 343.73L272.352 338.797L271.084 333.426V220.237Z" fill="#2F2E41"/>
<path d="M255.758 120.195C253.254 123.522 249.691 125.897 245.657 126.928C241.622 127.96 237.357 127.587 233.563 125.87C229.769 124.154 226.673 121.197 224.784 117.486C222.896 113.774 222.327 109.531 223.173 105.453C224.018 101.376 226.227 97.708 229.435 95.0536C232.644 92.3992 236.66 90.9166 240.824 90.85C244.987 90.7834 249.049 92.1367 252.341 94.687C255.633 97.2374 257.958 100.833 258.933 104.881C258.986 105.101 259.03 105.319 259.074 105.546C259.589 108.083 259.56 110.701 258.988 113.226C258.416 115.752 257.316 118.127 255.758 120.195Z" fill="#FFB6B6"/>
<path d="M251.937 109.74C251.549 107.789 250.565 106.006 249.122 104.636C249.265 106.506 249.005 108.384 248.362 110.146C243.542 110.572 238.7 109.613 234.407 107.381C231.174 105.188 227.059 105.378 222.266 107.381C222.265 105.05 222.724 102.741 223.616 100.587C224.508 98.4335 225.816 96.4763 227.465 94.8278C229.113 93.1793 231.07 91.8717 233.224 90.9796C235.378 90.0876 237.687 89.6286 240.018 89.6289H243.188C247.896 89.6298 252.411 91.5004 255.74 94.8294C259.069 98.1584 260.94 102.673 260.94 107.381C258.015 108.431 255.002 109.22 251.937 109.74Z" fill="#2F2E41"/>
<path d="M113.25 336C141.417 336 164.25 313.167 164.25 285C164.25 256.833 141.417 234 113.25 234C85.0835 234 62.25 256.833 62.25 285C62.25 313.167 85.0835 336 113.25 336Z" fill="#344F5A"/>
<path d="M438.25 102C466.417 102 489.25 79.1665 489.25 51C489.25 22.8335 466.417 0 438.25 0C410.083 0 387.25 22.8335 387.25 51C387.25 79.1665 410.083 102 438.25 102Z" fill="#344F5A"/>
<path d="M843.25 344C871.417 344 894.25 321.167 894.25 293C894.25 264.833 871.417 242 843.25 242C815.083 242 792.25 264.833 792.25 293C792.25 321.167 815.083 344 843.25 344Z" fill="#344F5A"/>
<path d="M523.919 196H472.503C468.514 195.996 464.69 194.409 461.869 191.589C459.048 188.768 457.462 184.944 457.457 180.955V100.113C457.175 99.9105 456.945 99.6434 456.786 99.334C456.628 99.0247 456.545 98.682 456.546 98.3344V90.2041C456.545 89.8566 456.628 89.514 456.786 89.2047C456.945 88.8954 457.175 88.6284 457.457 88.4258V86.2436C457.175 86.041 456.945 85.7739 456.786 85.4647C456.628 85.1554 456.545 84.8128 456.546 84.4653V76.3344C456.545 75.9869 456.628 75.6443 456.786 75.3351C456.945 75.0258 457.175 74.7588 457.457 74.5561V70.6123C457.108 70.425 456.817 70.1466 456.615 69.8067C456.412 69.4668 456.306 69.0783 456.307 68.6826V60.5522C456.306 60.1565 456.412 59.7678 456.615 59.4279C456.817 59.0879 457.108 58.8093 457.457 58.622V47.8154C457.462 43.8263 459.048 40.0019 461.869 37.1813C464.69 34.3606 468.514 32.774 472.503 32.7695H523.919C527.908 32.774 531.733 34.3607 534.553 37.1813C537.374 40.002 538.961 43.8264 538.965 47.8154V71.3716C539.236 71.5411 539.46 71.7766 539.615 72.0562C539.77 72.3357 539.851 72.6501 539.851 72.9697V88.4726C539.851 88.7923 539.77 89.1067 539.615 89.3863C539.46 89.666 539.236 89.9016 538.965 90.0712V180.955C538.961 184.944 537.374 188.768 534.553 191.589C531.733 194.409 527.908 195.996 523.919 196ZM472.503 34.7695C469.045 34.7734 465.728 36.1491 463.283 38.5948C460.837 41.0406 459.461 44.3566 459.457 47.8154V60.3232L458.495 60.3604C458.445 60.3621 458.398 60.383 458.363 60.4187C458.328 60.4544 458.307 60.5022 458.307 60.5522V68.6825C458.308 68.7325 458.328 68.7802 458.363 68.8159C458.398 68.8516 458.445 68.8725 458.495 68.8745L459.457 68.9111V75.9604L458.696 76.1479C458.654 76.158 458.617 76.1818 458.589 76.2156C458.562 76.2493 458.547 76.2911 458.546 76.3344V84.4653C458.547 84.5086 458.562 84.5504 458.589 84.5841C458.617 84.6178 458.654 84.6416 458.696 84.6518L459.457 84.8393V89.83L458.696 90.0175C458.654 90.0276 458.617 90.0515 458.589 90.0852C458.562 90.1189 458.547 90.1607 458.546 90.204V98.3344C458.547 98.3778 458.562 98.4197 458.589 98.4535C458.616 98.4873 458.654 98.5112 458.696 98.5214L459.457 98.7089V180.955C459.461 184.413 460.837 187.729 463.283 190.175C465.728 192.621 469.045 193.997 472.503 194H523.919C527.378 193.996 530.694 192.621 533.14 190.175C535.586 187.729 536.961 184.413 536.965 180.955V88.3588H537.851V73.084H536.965V47.8154C536.961 44.3566 535.586 41.0406 533.14 38.5949C530.694 36.1492 527.378 34.7735 523.919 34.7695L472.503 34.7695Z" fill="#3F3D56"/>
<path d="M472.503 34.7695C469.045 34.7734 465.728 36.1491 463.283 38.5948C460.837 41.0406 459.461 44.3566 459.457 47.8154V60.3232L458.495 60.3604C458.445 60.3621 458.398 60.383 458.363 60.4187C458.328 60.4544 458.307 60.5022 458.307 60.5522V68.6825C458.308 68.7325 458.328 68.7802 458.363 68.8159C458.398 68.8516 458.445 68.8725 458.495 68.8745L459.457 68.9111V75.9604L458.696 76.1479C458.654 76.158 458.617 76.1818 458.589 76.2156C458.562 76.2493 458.547 76.2911 458.546 76.3344V84.4653C458.547 84.5086 458.562 84.5504 458.589 84.5841C458.617 84.6178 458.654 84.6416 458.696 84.6518L459.457 84.8393V89.83L458.696 90.0175C458.654 90.0276 458.617 90.0515 458.589 90.0852C458.562 90.1189 458.547 90.1607 458.546 90.204V98.3344C458.547 98.3778 458.562 98.4197 458.589 98.4535C458.616 98.4873 458.654 98.5112 458.696 98.5214L459.457 98.7089V180.955C459.461 184.413 460.837 187.729 463.283 190.175C465.728 192.621 469.045 193.997 472.503 194H523.919C527.378 193.996 530.694 192.621 533.14 190.175C535.586 187.729 536.961 184.413 536.965 180.955V88.3588H537.851V73.084H536.965V47.8154C536.961 44.3566 535.586 41.0406 533.14 38.5949C530.694 36.1492 527.378 34.7735 523.919 34.7695L472.503 34.7695Z" fill="white"/>
<path d="M504.176 39.985C504.836 39.985 505.372 39.4497 505.372 38.7894C505.372 38.1291 504.836 37.5938 504.176 37.5938C503.516 37.5938 502.98 38.1291 502.98 38.7894C502.98 39.4497 503.516 39.985 504.176 39.985Z" fill="#3F3D56"/>
<path d="M244.08 270.403H110.293C108.393 270.398 106.572 269.641 105.229 268.298C103.885 266.954 103.128 265.134 103.123 263.234V198.045C103.128 196.145 103.885 194.324 105.228 192.981C106.571 191.637 108.392 190.88 110.292 190.875H244.079C245.979 190.88 247.8 191.637 249.143 192.98C250.487 194.323 251.244 196.144 251.249 198.044V263.233C251.244 265.133 250.487 266.954 249.144 268.297C247.801 269.641 245.98 270.398 244.08 270.403Z" fill="white"/>
<path d="M244.08 270.403H110.293C108.393 270.398 106.572 269.641 105.229 268.298C103.885 266.954 103.128 265.134 103.123 263.234V198.045C103.128 196.145 103.885 194.324 105.228 192.981C106.571 191.637 108.392 190.88 110.292 190.875H244.079C245.979 190.88 247.8 191.637 249.143 192.98C250.487 194.323 251.244 196.144 251.249 198.044V263.233C251.244 265.133 250.487 266.954 249.144 268.297C247.801 269.641 245.98 270.398 244.08 270.403ZM110.293 192.875C108.923 192.879 107.61 193.425 106.641 194.394C105.673 195.363 105.127 196.676 105.123 198.046V263.233C105.127 264.603 105.673 265.916 106.642 266.885C107.611 267.853 108.924 268.399 110.294 268.403H244.078C245.448 268.399 246.761 267.853 247.73 266.884C248.699 265.915 249.245 264.602 249.249 263.232V198.045C249.245 196.675 248.699 195.362 247.73 194.393C246.761 193.425 245.448 192.879 244.078 192.875L110.293 192.875Z" fill="#3F3D56"/>
<path d="M184.357 260.77C157.971 260.77 130.458 260.518 120.193 260.355C118.842 260.327 117.556 259.772 116.609 258.809C115.661 257.846 115.128 256.55 115.123 255.199V201.238C115.124 200.754 115.316 200.29 115.657 199.948C115.999 199.605 116.462 199.412 116.946 199.41H237.422C237.905 199.411 238.369 199.603 238.712 199.944C239.054 200.286 239.247 200.749 239.249 201.233V237.845C239.227 243.821 236.863 249.551 232.664 253.804C228.466 258.058 222.768 260.496 216.792 260.597C207.225 260.722 195.896 260.77 184.357 260.77Z" fill="#1BB042"/>
<path d="M230.271 234.481H121.412C120.5 234.478 119.611 234.195 118.866 233.67C118.121 233.145 117.556 232.403 117.248 231.545L104.926 196.979C104.689 196.312 104.615 195.598 104.711 194.897C104.806 194.196 105.069 193.528 105.476 192.949C105.883 192.371 106.424 191.898 107.051 191.571C107.679 191.245 108.376 191.074 109.084 191.072L245.156 190.883C245.803 190.882 246.442 191.023 247.029 191.296C247.615 191.57 248.134 191.968 248.55 192.464C248.966 192.959 249.267 193.54 249.434 194.165C249.601 194.79 249.629 195.444 249.516 196.081L249.621 196.125L249.23 197.037L249.226 197.046L234.331 231.801C233.992 232.597 233.426 233.275 232.704 233.752C231.982 234.228 231.136 234.482 230.271 234.481ZM245.163 192.883L109.088 193.072C108.7 193.073 108.318 193.167 107.974 193.346C107.63 193.524 107.335 193.783 107.111 194.1C106.888 194.417 106.744 194.783 106.692 195.167C106.639 195.551 106.68 195.942 106.81 196.308L119.131 230.873C119.3 231.342 119.61 231.749 120.018 232.037C120.427 232.324 120.914 232.479 121.413 232.481H230.271C230.744 232.481 231.207 232.342 231.602 232.082C231.997 231.821 232.307 231.45 232.493 231.014L247.388 196.258C247.546 195.89 247.61 195.488 247.574 195.089C247.539 194.69 247.405 194.306 247.184 193.971C246.964 193.637 246.663 193.362 246.311 193.172C245.958 192.982 245.563 192.883 245.163 192.883Z" fill="#3F3D56"/>
<path d="M176.983 242.005C181.691 242.005 185.507 238.189 185.507 233.481C185.507 228.773 181.691 224.957 176.983 224.957C172.275 224.957 168.459 228.773 168.459 233.481C168.459 238.189 172.275 242.005 176.983 242.005Z" fill="white"/>
<path d="M821.379 283.12L798.609 260.64C797.501 259.537 796.186 258.663 794.739 258.07C793.292 257.476 791.743 257.174 790.179 257.18H790.099C788.524 257.184 786.965 257.501 785.513 258.112C784.06 258.723 782.744 259.617 781.639 260.74C776.548 265.892 773.652 272.818 773.561 280.061C773.469 287.304 776.189 294.3 781.149 299.58C781.389 299.84 781.639 300.09 781.889 300.34C783.274 301.716 784.803 302.94 786.449 303.99C790.951 306.898 796.2 308.437 801.559 308.42H801.729C805.408 308.407 809.047 307.665 812.437 306.237C815.827 304.809 818.901 302.723 821.479 300.1C823.714 297.833 824.958 294.772 824.939 291.589C824.92 288.406 823.64 285.36 821.379 283.12ZM820.059 298.69C815.832 302.949 810.265 305.62 804.298 306.254C798.331 306.888 792.327 305.445 787.299 302.17C785.861 301.218 784.518 300.13 783.289 298.92C778.383 294.074 775.602 287.478 775.559 280.582C775.516 273.687 778.214 267.056 783.059 262.15C783.98 261.211 785.079 260.465 786.291 259.955C787.503 259.445 788.804 259.182 790.119 259.18H790.179C791.481 259.175 792.771 259.427 793.976 259.921C795.18 260.416 796.276 261.142 797.199 262.06L819.969 284.55C821.854 286.414 822.922 288.95 822.939 291.601C822.956 294.252 821.92 296.802 820.059 298.69Z" fill="#3F3D56"/>
<path d="M820.059 298.69C815.832 302.949 810.265 305.62 804.298 306.254C798.331 306.888 792.327 305.445 787.299 302.17C785.861 301.218 784.518 300.13 783.289 298.92C778.383 294.074 775.602 287.478 775.559 280.582C775.516 273.687 778.214 267.056 783.059 262.15C783.98 261.211 785.079 260.465 786.291 259.955C787.503 259.445 788.804 259.182 790.119 259.18H790.179C791.481 259.175 792.771 259.427 793.976 259.921C795.18 260.416 796.276 261.142 797.199 262.06L819.969 284.55C821.854 286.414 822.922 288.95 822.939 291.601C822.956 294.252 821.92 296.802 820.059 298.69Z" fill="white"/>
<path d="M746.67 209.341L723.9 186.851C721.659 184.627 718.627 183.383 715.47 183.391H715.4C713.822 183.397 712.261 183.716 710.808 184.328C709.354 184.941 708.036 185.836 706.93 186.961C702.721 191.235 699.992 196.746 699.142 202.684C698.293 208.623 699.368 214.677 702.21 219.961L702.22 219.971C703.392 222.132 704.848 224.126 706.55 225.901C706.74 226.121 706.96 226.341 707.18 226.561C712.409 231.751 719.482 234.657 726.85 234.641H727.03C730.709 234.625 734.348 233.881 737.738 232.451C741.128 231.022 744.201 228.935 746.78 226.311C747.887 225.189 748.762 223.861 749.356 222.401C749.95 220.941 750.25 219.379 750.24 217.803C750.23 216.227 749.909 214.669 749.297 213.217C748.684 211.765 747.791 210.448 746.67 209.341ZM745.35 224.911C742.956 227.346 740.104 229.282 736.958 230.609C733.812 231.936 730.434 232.626 727.02 232.641H726.85C721.722 232.639 716.71 231.121 712.442 228.277C708.175 225.434 704.844 221.392 702.868 216.661C700.892 211.929 700.359 206.719 701.336 201.685C702.313 196.652 704.757 192.019 708.36 188.371C710.224 186.486 712.76 185.418 715.411 185.401C718.062 185.384 720.612 186.42 722.5 188.281L745.27 210.761C747.154 212.628 748.22 215.167 748.235 217.819C748.25 220.472 747.212 223.022 745.35 224.911Z" fill="#3F3D56"/>
<path d="M745.35 224.911C742.956 227.346 740.104 229.282 736.958 230.609C733.812 231.936 730.434 232.626 727.02 232.641H726.85C721.722 232.639 716.71 231.121 712.442 228.277C708.175 225.434 704.844 221.392 702.868 216.661C700.892 211.929 700.359 206.719 701.336 201.685C702.313 196.652 704.757 192.019 708.36 188.371C710.224 186.486 712.76 185.418 715.411 185.401C718.062 185.384 720.612 186.42 722.5 188.281L745.27 210.761C747.154 212.628 748.22 215.167 748.235 217.819C748.25 220.472 747.212 223.022 745.35 224.911Z" fill="white"/>
<path d="M822.834 290.187L797.731 265.394C796.085 263.772 793.863 262.869 791.552 262.883C789.241 262.897 787.03 263.828 785.404 265.47C783.37 267.525 781.761 269.96 780.669 272.637C779.577 275.314 779.023 278.18 779.039 281.071C779.056 283.963 779.642 286.822 780.764 289.487C781.886 292.151 783.523 294.568 785.58 296.6C787.637 298.631 790.074 300.238 792.752 301.327C795.43 302.416 798.297 302.966 801.188 302.947C804.079 302.927 806.938 302.338 809.601 301.213C812.264 300.088 814.68 298.449 816.709 296.389L822.834 290.187Z" fill="#1BB042"/>
<path d="M748.129 216.402L723.026 191.609C721.38 189.986 719.158 189.083 716.846 189.098C714.535 189.112 712.324 190.043 710.699 191.685C708.665 193.74 707.056 196.175 705.964 198.852C704.872 201.529 704.318 204.395 704.334 207.286C704.351 210.177 704.937 213.037 706.059 215.701C707.181 218.366 708.818 220.783 710.874 222.815C712.931 224.846 715.369 226.453 718.047 227.542C720.725 228.631 723.592 229.181 726.483 229.162C729.374 229.142 732.233 228.553 734.896 227.428C737.559 226.302 739.974 224.663 742.004 222.604L748.129 216.402Z" fill="#1BB042"/>
<path d="M283.764 190.316L283.791 157.453L264.473 159.179L271.291 179.906L246.543 217.42C244.996 217.767 243.583 218.557 242.477 219.694C241.37 220.83 240.619 222.264 240.313 223.82C240.008 225.377 240.162 226.988 240.756 228.458C241.351 229.929 242.36 231.194 243.662 232.101C244.963 233.007 246.5 233.515 248.085 233.563C249.671 233.611 251.236 233.197 252.59 232.371C253.944 231.545 255.028 230.343 255.71 228.911C256.393 227.48 256.644 225.88 256.433 224.309L283.764 190.316Z" fill="#FFB6B6"/>
<path d="M490.307 38.7894C490.307 38.4724 490.433 38.1685 490.657 37.9444C490.881 37.7202 491.185 37.5941 491.502 37.5938H499.633C499.949 37.5947 500.252 37.721 500.476 37.9452C500.699 38.1693 500.825 38.4729 500.825 38.7894C500.825 39.1059 500.699 39.4095 500.476 39.6336C500.252 39.8578 499.949 39.9841 499.633 39.985H491.502C491.185 39.9847 490.881 39.8586 490.657 39.6345C490.433 39.4103 490.307 39.1064 490.307 38.7894Z" fill="#3F3D56"/>
<path d="M530.248 56.5609V172.207C530.249 174.609 529.301 176.914 527.611 178.622C525.922 180.329 523.627 181.301 521.225 181.326C521.192 181.33 521.158 181.331 521.125 181.33H507.665C496.896 181.33 486.567 177.052 478.952 169.437C471.337 161.822 467.059 151.493 467.059 140.724V56.5609C467.059 54.1412 468.02 51.8206 469.731 50.1097C471.442 48.3987 473.762 47.4375 476.182 47.4375H481.636C479.109 54.8081 513.401 57.9113 515.284 47.4375H521.125C523.545 47.4375 525.865 48.3987 527.576 50.1097C529.287 51.8207 530.248 54.1412 530.248 56.5609Z" fill="#1BB042"/>
<path d="M498.983 168.005C503.691 168.005 507.507 164.189 507.507 159.481C507.507 154.773 503.691 150.957 498.983 150.957C494.275 150.957 490.459 154.773 490.459 159.481C490.459 164.189 494.275 168.005 498.983 168.005Z" fill="white"/>
<path d="M723.482 232.819L722.076 234.242L774.014 285.54L775.42 284.117L723.482 232.819Z" fill="#3F3D56"/>
<path d="M795.249 305.629L794.649 307.209C791.829 306.139 789.095 305.065 786.449 303.989C739.569 284.859 717.189 262.469 702.219 219.969L702.209 219.959C701.499 217.959 700.809 215.912 700.139 213.819L701.719 213.309C702.247 215.322 703.019 217.263 704.019 219.089C704.839 221.419 705.682 223.689 706.549 225.899C720.619 261.769 741.369 282.269 781.149 299.579C783.149 300.449 785.199 301.312 787.299 302.169C789.737 303.757 792.424 304.927 795.249 305.629Z" fill="#3F3D56"/>
</g>
<defs>
<clipPath id="clip0_136_40">
<rect width="894.249" height="448.282" fill="white"/>
</clipPath>
</defs>
</svg>
