<svg xmlns="http://www.w3.org/2000/svg" version="1.1" xmlns:xlink="http://www.w3.org/1999/xlink" xmlns:svgjs="http://svgjs.com/svgjs" width="1440" height="2560" preserveAspectRatio="none" viewBox="0 0 1440 2560"><g mask="url(&quot;#SvgjsMask1006&quot;)" fill="none"><path d="M 0,505 C 57.6,911 172.8,2563.8 288,2535 C 403.2,2506.2 460.8,582.2 576,361 C 691.2,139.8 748.8,1380.2 864,1429 C 979.2,1477.8 1036.8,419 1152,605 C 1267.2,791 1382.4,2008.2 1440,2359L1440 2560L0 2560z" fill="rgba(28, 122, 53, 0.22)"></path><path d="M 0,2084 C 96,1891.4 288,1097 480,1121 C 672,1145 768,2412.4 960,2204 C 1152,1995.6 1344,504 1440,79L1440 2560L0 2560z" fill="rgba(27, 176, 66, 0.23)"></path></g><defs><mask id="SvgjsMask1006"><rect width="1440" height="2560" fill="#ffffff"></rect></mask></defs></svg>