<svg xmlns="http://www.w3.org/2000/svg" version="1.1" xmlns:xlink="http://www.w3.org/1999/xlink" xmlns:svgjs="http://svgjs.com/svgjs" width="1440" height="1560" preserveAspectRatio="none" viewBox="0 0 1440 1560"><g mask="url(&quot;#SvgjsMask1005&quot;)" fill="none"><path d="M 0,726 C 57.6,640 172.8,356.8 288,296 C 403.2,235.2 460.8,444 576,422 C 691.2,400 748.8,175.8 864,186 C 979.2,196.2 1036.8,477 1152,473 C 1267.2,469 1382.4,227.4 1440,166L1440 1560L0 1560z" fill="rgba(214, 234, 255, 1)"></path><path d="M 0,955 C 96,1019 288,1294.8 480,1275 C 672,1255.2 768,800 960,856 C 1152,912 1344,1415.2 1440,1555L1440 1560L0 1560z" fill="rgba(191, 223, 255, 1)"></path></g><defs><mask id="SvgjsMask1005"><rect width="1440" height="1560" fill="#ffffff"></rect></mask></defs></svg>